<?xml version="1.0" encoding="UTF-8" standalone="no"?>
<!-- Created with Inkscape (http://www.inkscape.org/) -->

<svg
   xmlns:dc="http://purl.org/dc/elements/1.1/"
   xmlns:cc="http://creativecommons.org/ns#"
   xmlns:rdf="http://www.w3.org/1999/02/22-rdf-syntax-ns#"
   xmlns:svg="http://www.w3.org/2000/svg"
   xmlns="http://www.w3.org/2000/svg"
   xmlns:sodipodi="http://sodipodi.sourceforge.net/DTD/sodipodi-0.dtd"
   xmlns:inkscape="http://www.inkscape.org/namespaces/inkscape"
   width="162.25073mm"
   height="169.33199mm"
   viewBox="0 0 162.25073 169.33199"
   version="1.1"
   id="svg8"
   inkscape:version="0.92.4 (5da689c313, 2019-01-14)"
   sodipodi:docname="bug.svg">
  <defs
     id="defs2" />
  <sodipodi:namedview
     id="base"
     pagecolor="#ffffff"
     bordercolor="#666666"
     borderopacity="1.0"
     inkscape:pageopacity="0.0"
     inkscape:pageshadow="2"
     inkscape:zoom="0.98994949"
     inkscape:cx="188.1969"
     inkscape:cy="370.08618"
     inkscape:document-units="mm"
     inkscape:current-layer="layer1"
     showgrid="false"
     inkscape:window-width="1920"
     inkscape:window-height="1057"
     inkscape:window-x="1272"
     inkscape:window-y="-8"
     inkscape:window-maximized="1" />
  <metadata
     id="metadata5">
    <rdf:RDF>
      <cc:Work
         rdf:about="">
        <dc:format>image/svg+xml</dc:format>
        <dc:type
           rdf:resource="http://purl.org/dc/dcmitype/StillImage" />
        <dc:title />
      </cc:Work>
    </rdf:RDF>
  </metadata>
  <g
     inkscape:label="Calque 1"
     inkscape:groupmode="layer"
     id="layer1"
     transform="translate(-24.022506,-46.402811)">
    <path
       style="fill:#aad400;fill-opacity:1;stroke:none;stroke-width:2.92197418;stroke-miterlimit:4;stroke-dasharray:none;stroke-opacity:1"
       d="m 99.664123,195.80947 c -4.901507,-0.71902 -11.970972,-3.4871 -16.248177,-6.36204 -8.755924,-5.88534 -15.243915,-15.42962 -17.266268,-25.39986 -0.464798,-2.29146 -0.913975,-15.19413 -0.936719,-26.90732 l -0.01369,-7.05383 h 18.62758 18.627581 v 33.00918 33.00917 l -0.61635,-0.0334 c -0.339,-0.0184 -1.31728,-0.13623 -2.173957,-0.2619 z"
       id="path946"
       inkscape:connector-curvature="0" />
    <path
       style="fill:#aad400;fill-opacity:1;stroke:none;stroke-width:2.93898177;stroke-miterlimit:4;stroke-dasharray:none;stroke-opacity:1"
       d="m 107.35226,162.9221 v -33.22114 h 18.91223 18.91223 l -0.19262,13.01877 c -0.28555,19.29984 -0.49028,21.31545 -2.76499,27.22177 -3.89691,10.11843 -12.03851,18.58905 -22.05473,22.946 -2.58472,1.12433 -8.49707,2.73879 -11.22783,3.06594 l -1.58429,0.1898 z"
       id="path944"
       inkscape:connector-curvature="0" />
    <path
       style="fill:#aad400;fill-opacity:1;stroke:none;stroke-width:2.99181819;stroke-miterlimit:4;stroke-dasharray:none;stroke-opacity:1"
       d="m 65.207143,122.6824 c 0.0115,-4.56823 0.456855,-10.41826 0.925386,-12.15558 0.603662,-2.23836 1.660649,-4.09102 3.595226,-6.30162 1.749646,-1.99927 3.77919,-3.61763 5.42456,-4.325537 1.096388,-0.471718 1.10861,-0.456024 2.081501,2.672537 1.384068,4.45077 3.759122,7.34676 7.929276,9.66843 l 2.409569,1.3415 h 17.474079 17.47408 l 2.40957,-1.3415 c 4.22586,-2.35268 6.43833,-5.07308 7.91378,-9.73059 0.4302,-1.35801 0.88098,-2.588096 1.00172,-2.733521 0.49343,-0.594324 3.85687,1.646191 6.05072,4.030611 2.28369,2.48206 3.4665,4.49755 4.08743,6.96489 0.39454,1.56772 0.89103,8.51571 0.90312,12.6384 l 0.007,2.40247 H 105.04675 65.199272 Z"
       id="path948"
       inkscape:connector-curvature="0" />
    <path
       style="fill:#a0892c;fill-opacity:1;stroke:none;stroke-width:2.9398315;stroke-miterlimit:4;stroke-dasharray:none;stroke-opacity:1"
       d="m 88.142915,108.30847 c -2.993161,-1.17012 -5.192798,-3.85937 -5.743541,-7.02198 -0.201322,-1.15606 -0.272239,-3.652409 -0.190878,-6.719043 0.108666,-4.095842 0.227859,-5.167268 0.742117,-6.671002 2.148715,-6.283004 7.325738,-11.215465 13.521048,-12.882316 2.6503,-0.713062 14.755189,-0.690607 17.358669,0.0322 6.60358,1.833356 11.8919,7.127686 13.71912,13.734673 0.38358,1.387005 0.47947,2.863649 0.47947,7.383716 0,5.509752 -0.0178,5.687932 -0.71689,7.178422 -0.9817,2.09301 -2.20572,3.4053 -4.23448,4.53984 l -1.71622,0.95977 -15.95885,-0.0129 c -14.840147,-0.012 -16.050031,-0.0485 -17.259565,-0.52138 z"
       id="path954"
       inkscape:connector-curvature="0" />
    <path
       style="fill:#000000;stroke:none;stroke-width:0.35277843;stroke-opacity:1"
       d="m 40.222288,199.83685 c 0,-10.38724 0.127881,-16.13715 0.368896,-16.58751 0.217147,-0.40573 4.752135,-2.87934 11.024327,-6.01318 5.860486,-2.92815 10.712335,-5.37644 10.78189,-5.44063 0.06955,-0.0641 -0.280886,-1.67375 -0.778755,-3.57682 -1.152465,-4.40518 -1.640766,-8.39812 -1.640766,-13.41685 v -3.97801 l -8.907655,-0.005 c -4.899211,-0.003 -9.099249,-0.1272 -9.33342,-0.27601 -0.23417,-0.14883 -4.315685,-4.78985 -9.070032,-10.31337 l -8.644267,-10.04276 2.014464,-1.84353 c 1.107954,-1.01393 2.093837,-1.83736 2.190852,-1.82983 0.09701,0.008 3.748271,4.20786 8.113903,9.33406 l 7.937515,9.32035 7.84932,0.007 7.84932,0.007 v -14.60092 -14.60092 l -9.260433,-3.94852 c -5.093239,-2.17169 -9.538247,-4.27076 -9.877796,-4.66459 -0.566486,-0.65705 -0.617363,-1.91932 -0.617363,-15.317279 V 77.447317 h 2.822227 2.822228 v 13.186118 13.186145 l 7.434721,3.19802 7.434716,3.19803 0.503588,-1.30288 c 2.427076,-6.27936 7.493451,-11.322209 13.241598,-13.180119 l 2.332631,-0.753948 0.192515,-3.226806 c 0.351935,-5.898971 2.627433,-10.9847 6.91633,-15.457989 l 2.289713,-2.388151 -4.650654,-4.696676 -4.650657,-4.696675 v -9.054785 -9.05479 h 2.822228 2.822227 v 7.844414 7.84441 l 4.425503,4.435355 4.4255,4.435341 2.541874,-0.902655 c 2.462943,-0.874628 2.810247,-0.902655 11.184944,-0.902655 8.37469,0 8.722,0.028 11.18493,0.902655 l 2.54189,0.902655 4.4255,-4.435341 4.42552,-4.435355 v -7.84441 -7.844414 h 2.82222 2.82223 v 9.05479 9.054785 l -4.65066,4.696675 -4.65065,4.696676 2.28971,2.388151 c 4.28598,4.470249 6.56444,9.559765 6.91575,15.448096 l 0.19192,3.216899 2.4196,0.823748 c 5.91797,2.014764 10.49683,6.592319 13.13387,13.130119 l 0.52552,1.30288 7.43472,-3.19803 7.43472,-3.19802 V 90.633435 77.447317 h 2.82222 2.82223 v 14.601214 c 0,13.397959 -0.0509,14.660229 -0.61736,15.317279 -0.33955,0.39383 -4.78456,2.4929 -9.87779,4.66459 l -9.26043,3.94854 v 14.6009 14.60092 l 7.8493,-0.0107 7.84932,-0.0107 7.93753,-9.32384 c 4.36563,-5.12812 8.01688,-9.32661 8.11389,-9.32999 0.0971,-0.004 1.08936,0.82342 2.20521,1.83736 l 2.02881,1.84354 -8.67305,10.05168 c -4.77017,5.52843 -8.85815,10.16945 -9.08438,10.31337 -0.22623,0.14392 -4.41978,0.2641 -9.31899,0.26708 l -8.90764,0.005 v 4.20781 c 0,5.04146 -0.43719,8.54544 -1.64535,13.18705 -0.49535,1.90307 -0.84373,3.51263 -0.77418,3.57682 0.0696,0.0641 4.92141,2.51247 10.78189,5.44062 6.2722,3.13385 10.80718,5.60745 11.02432,6.01319 0.24102,0.45036 0.3689,6.20026 0.3689,16.58751 v 15.89823 h -2.82223 -2.82222 v -14.63916 -14.63904 l -9.51138,-4.75821 -9.51138,-4.7582 -1.28497,2.1993 c -2.11958,3.62779 -4.53751,6.66671 -7.81271,9.81927 -15.29006,14.71746 -38.444448,16.78271 -56.141429,5.00755 -5.324598,-3.54286 -10.658066,-9.16999 -13.815376,-14.57606 l -1.43151,-2.4511 -9.512406,4.75873 -9.512406,4.75872 v 14.63904 14.63905 H 43.044515 40.222288 Z M 102.31129,163.34748 V 131.06826 H 83.935052 65.558817 l 0.160853,15.25767 c 0.170216,16.14589 0.273276,17.2688 2.079449,22.65745 3.084052,9.20115 10.237284,17.63749 18.711088,22.06739 4.785775,2.50187 11.139255,4.47501 14.654553,4.55112 l 1.14653,0.0248 z m 12.90679,31.04712 c 12.12727,-3.1669 22.27182,-12.42207 26.86333,-24.50822 2.08593,-5.4907 2.28175,-7.37514 2.46671,-23.73684 l 0.17051,-15.08128 H 126.3372 107.95575 v 32.31987 32.31988 l 2.02847,-0.23818 c 1.11567,-0.13106 3.4709,-0.61485 5.23386,-1.07523 z m 29.34018,-75.23262 c -0.18159,-6.88489 -0.62339,-8.83604 -2.67654,-11.82018 -1.84832,-2.68645 -5.39321,-5.55438 -7.52208,-6.08561 -0.89031,-0.22216 -0.96578,-0.1328 -1.53171,1.81398 -1.32744,4.56624 -3.77194,7.5394 -7.85997,9.55981 l -2.68808,1.32853 H 105.15181 88.023765 l -2.29306,-1.1027 c -4.24644,-2.04204 -6.839863,-5.03006 -8.171802,-9.41518 -0.702332,-2.3123 -0.772023,-2.40387 -1.660521,-2.18217 -2.119933,0.52897 -5.668303,3.40209 -7.513051,6.08334 -2.053143,2.98414 -2.494952,4.93529 -2.676531,11.82018 l -0.165141,6.26183 h 39.589861 39.58987 z m -22.13858,-11.68149 c 2.18103,-1.14521 3.09142,-2.04448 4.15613,-4.10534 0.79379,-1.53648 0.93087,-2.3105 1.06327,-6.003622 0.2054,-5.729211 -0.30407,-8.83403 -2.0271,-12.353677 -2.54742,-5.20361 -7.81356,-9.136884 -13.42289,-10.025539 -2.93388,-0.464787 -11.13589,-0.469134 -14.111141,-0.008 -7.575437,1.175483 -14.01334,7.744108 -15.1989,15.507496 -0.57994,3.797607 -0.27807,10.779012 0.534155,12.353632 1.532615,2.97118 3.468465,4.58749 6.374452,5.32223 0.582085,0.14717 7.805223,0.24019 16.051424,0.20671 l 14.99308,-0.0608 z"
       id="path826"
       inkscape:connector-curvature="0"
       sodipodi:nodetypes="sccccscccscscscccccccsccccccccscsscccccccccccssccccccccccccsccsscccccccscccccccscccssccsscccscccccccccsccccccccsccccssccccccccccccccccccccccsccssccccccscccsccccc" />
  </g>
</svg>
